<?xml version="1.0" encoding="UTF-8"?><svg id="Capa_1" xmlns="http://www.w3.org/2000/svg" viewBox="0 0 496.85 122.37"><defs><style>.cls-1{fill:#fff;}</style></defs><g><path class="cls-1" d="M164.86,2h14V119h-14V2Zm10,98h10.9c1.95,0,3.46-.82,4.51-2.46,1.06-1.64,1.58-3.94,1.58-6.91V30.37c0-2.96-.53-5.26-1.58-6.91s-2.55-2.46-4.5-2.46h-10.9V2h12.09c3.97,0,7.37,1.03,10.2,3.1,2.83,2.07,4.99,5.07,6.48,9.01s2.23,8.65,2.23,14.12V92.77c0,5.47-.74,10.18-2.23,14.12-1.49,3.94-3.66,6.95-6.5,9.01s-6.26,3.1-10.23,3.1h-12.03v-19h-.02Z"/><path class="cls-1" d="M214.86,2h14V119h-14V2Zm7,50h28v19h-28v-19ZM240.86,2h14V119h-14V2Z"/><path class="cls-1" d="M288.86,2h14V119h-14V2Zm8,98h12.47c1.75,0,3.1-.65,4.07-1.95s1.45-3.12,1.45-5.45v-15.53c0-1.91-.22-3.54-.66-4.9-.44-1.35-1.09-2.39-1.97-3.1-.87-.72-1.92-1.07-3.13-1.07h-12.25v-19h11.75c1.66,0,2.95-.77,3.87-2.31,.92-1.54,1.38-3.74,1.38-6.61v-11.46c0-2.4-.46-4.27-1.38-5.61s-2.19-2.01-3.81-2.01h-11.8V2h14.63c3.44,0,6.39,.94,8.84,2.82,2.46,1.88,4.32,4.63,5.61,8.25,1.29,3.62,1.92,7.98,1.92,13.08v12.55c0,3.54-.44,6.67-1.32,9.38s-2.15,4.94-3.82,6.68-3.68,2.91-6.03,3.5c2.56,.54,4.75,1.69,6.55,3.46,1.81,1.77,3.19,4.09,4.16,6.96,.96,2.87,1.45,6.21,1.45,10.02v15.6c0,5.22-.68,9.68-2.04,13.37-1.36,3.7-3.36,6.51-5.99,8.44s-5.78,2.89-9.45,2.89h-14.52v-19h.02Z"/><path class="cls-1" d="M350.86,119h-14V2h14V119Z"/><path class="cls-1" d="M360.86,2h14V119h-14V2Zm11,62.93L388.16,2h16.13l-32.42,98.42v-35.49h-.01Zm5.11-9.83l9.79-11.99,20.05,75.89h-15.67l-14.17-63.9Z"/><path class="cls-1" d="M411.86,2h14V119h-14V2Zm6,0h31V21h-31V2Zm0,49h28v19h-28v-19Zm0,49h31v19h-31v-19Z"/><path class="cls-1" d="M464.65,116.75c-3.17-2.28-5.59-5.58-7.27-9.9s-2.52-9.51-2.52-15.57v-6.28l15-.16v6.28c0,2.95,.58,5.27,1.75,6.96s2.79,2.53,4.86,2.53,3.61-.83,4.72-2.49c1.11-1.66,1.67-3.94,1.67-6.84v-10.76c0-2.11-.43-3.95-1.28-5.51-.85-1.56-1.95-2.91-3.29-4.04s-3.17-2.5-5.47-4.08c-.15-.11-.29-.21-.43-.32-.13-.11-.27-.21-.43-.32l-.74-.48c-3.06-2.17-5.67-4.43-7.83-6.78-2.16-2.35-3.95-5.46-5.39-9.31s-2.16-8.61-2.16-14.27v-6.34c0-5.96,.81-11.07,2.43-15.33s3.98-7.52,7.07-9.78c3.09-2.25,6.81-3.38,11.17-3.38s7.88,1.13,10.94,3.38c3.05,2.25,5.38,5.54,6.99,9.86s2.41,9.51,2.41,15.57v6.61l-14,.24v-6.68c0-3-.56-5.35-1.68-7.04s-2.68-2.53-4.68-2.53c-2.12,0-3.75,.76-4.91,2.29-1.16,1.53-1.74,3.63-1.74,6.32v8.1c0,2.17,.41,4.04,1.22,5.63s1.83,2.92,3.06,4c1.23,1.08,2.94,2.39,5.13,3.92,.42,.26,.84,.55,1.28,.87s.88,.63,1.33,.95c.08,.05,.14,.11,.2,.16s.12,.11,.2,.16c3.14,2.32,5.67,4.48,7.6,6.46s3.57,4.77,4.93,8.36c1.36,3.59,2.04,8.19,2.04,13.79v10.27c0,6.06-.82,11.25-2.46,15.57-1.64,4.32-4.03,7.62-7.15,9.9-3.13,2.28-6.87,3.42-11.24,3.42-4.37,0-8.16-1.13-11.33-3.41Z"/></g><path class="cls-1" d="M105.89,51.73c-3.35,2.82-6.19,6.82-8.28,11.55-2.34,5.36-3.66,11.64-3.66,18.37,0,9.64,2.72,18.27,7.07,24.55,4.36,6.27,10.42,10.18,17.06,10.18s12.7-3.91,17.06-10.18,7.07-14.91,7.07-24.55-2.72-18.27-7.07-24.55c-4.37-6.28-10.43-10.1-17.06-10.1h-.13l-1.07-6h.06c.51,0,.88-.09,1.14-.09,7.83,0,14.91,4.55,20.02,12,5.12,7.36,8.28,17.55,8.28,28.73s-3.16,21.46-8.28,28.82-12.19,11.91-20.02,11.91-14.91-4.55-20.03-11.91c-5.12-7.36-8.28-17.55-8.28-28.82,0-7.91,1.58-15.27,4.3-21.55,2.59-6,6.32-11,10.68-14.36l1.14,6ZM29.3,72.96l23.82-31.35-4.76-24.94-4.46,.53c-.25,0-.56,.09-.8,.09-2.35,0-4.52-1.34-6.13-3.47-1.61-2.05-2.66-4.9-2.85-8.01-.06-.27-.06-.62-.06-.89,0-1.16,.37-2.23,.99-2.94,.5-.62,1.12-.98,1.86-.98h20.05c2.1,0,4.02,.44,5.5,1.78,1.55,1.33,2.47,3.47,2.47,6.49,0,1.25-.12,2.49-.68,3.65-.62,1.25-1.54,2.05-2.97,2.22l-7.79,.98,1.87,9.88,50.32,.09-3.82-20.09h-5.71c-1.14,0-2.08-1.36-2.08-3s.95-3,2.08-3h17.18c2.59,0,4.93,1.45,6.63,3.91,1.64,2.45,2.72,5.82,2.72,9.55s-1.07,7.09-2.72,9.46c-1.71,2.45-4.04,4-6.63,4-1.14,0-2.08-1.36-2.08-3,0-1.73,.95-3.09,2.08-3.09,1.45,0,2.72-.82,3.66-2.09,.95-1.36,1.52-3.27,1.52-5.27s-.57-3.91-1.52-5.27c-.93-1.38-2.2-2.2-3.65-2.2h-7.77l4.3,22.73c0,.09,0-.48,0-.39l1.24,6.23c.06,.18,.06,.36,.06,.53l6.99,36.6c1.61,.09,3.09,1.07,4.21,2.67,1.18,1.69,1.92,4.01,1.92,6.59s-.74,4.9-1.92,6.59c-1.18,1.69-2.78,2.76-4.58,2.76s-3.4-1.07-4.58-2.76-1.92-4.01-1.92-6.59,.74-4.9,1.92-6.59c.31-.45,.62-.8,.99-1.16l-6.56-34.55c-6.93,.62-13.8,5.08-20.05,11.22-6.87,6.77-12.99,15.5-17.76,23.33,1.18,2.14,1.86,4.9,1.86,7.75,0,2.41-.5,4.54-1.24,6.5l4.7,5.16,3.03-1.16c.56-.18,1.11,.27,1.24,1.07,.19,.8-.19,1.6-.68,1.78l-7.12,2.76c-.5,.18-1.11-.27-1.24-1.07-.12-.8,.19-1.6,.74-1.78l1.55-.62-3.47-3.83h0c-1.62,2.42-3.83,3.92-6.37,3.92s-4.64-1.42-6.25-3.74c-1.11-1.6-1.92-3.65-2.29-5.97h-22.21c-.31,1.34-.8,2.58-1.55,3.56-1.11,1.69-2.78,2.76-4.58,2.76s-3.4-1.07-4.58-2.76c-1.11-1.69-1.86-4.01-1.86-6.59s.74-4.9,1.86-6.59c1.18-1.69,2.85-2.67,4.58-2.67,1.25,.02,2.36,.46,3.35,1.27h0Zm26.1-24.79l-22.24,29.26c.13,.26,.15,.31,.28,.57h21.83c.43-2.29,1.22-4.4,2.32-6.07,.61-.79,1.28-1.5,1.96-2.11l-4.15-21.65Zm-28.07,63.18c-5.93,0-11.37-3.43-15.29-9.15-3.91-5.63-6.36-13.38-6.36-22s2.45-16.37,6.36-22c3.91-5.63,9.36-9.15,15.29-9.15,4.22,0,8.13,1.76,11.44,4.66l-1.59,2.02c-2.87-2.38-6.24-3.78-9.85-3.78-5.38,0-10.27,3.17-13.82,8.27-3.55,5.1-5.75,12.23-5.75,19.98s2.2,14.87,5.75,19.98c3.55,5.1,8.44,8.27,13.82,8.27s10.33-3.17,13.88-8.27c2.14-3.08,3.79-6.86,4.77-11.18h2.14c-1.04,5.1-2.94,9.59-5.44,13.2-3.91,5.72-9.35,9.15-15.35,9.15h0Zm18.72-39.35c-.24-.97-.49-1.94-.73-2.82l1.53-2.11c.55,1.58,.98,3.26,1.35,4.93h-2.15Zm-18.72,47.63c-7.52,0-14.37-4.4-19.32-11.53C3.06,100.97,0,91.11,0,80.2s3.06-20.68,8.01-27.81c4.95-7.22,11.8-11.62,19.32-11.62,5.87,0,11.31,2.73,15.78,7.22l-3.06,4.05c-3.67-3.43-8.01-5.37-12.72-5.37-6.42,0-12.23,3.7-16.45,9.77-4.21,6.07-6.84,14.52-6.84,23.76s2.63,17.69,6.85,23.76,10.03,9.86,16.45,9.86,12.29-3.78,16.51-9.86c2.87-4.05,4.95-9.15,6.05-14.96h4.16c-1.16,7.39-3.73,13.91-7.34,19.1-4.96,7.13-11.8,11.53-19.39,11.53h0Zm22.57-47.63c-.43-2.29-.98-4.49-1.71-6.6l3.06-4.05c1.28,3.26,2.26,6.86,2.81,10.65h-4.16Zm68.54-22.61c5.81,.18,11.13,3.61,14.92,9.15,3.91,5.63,6.36,13.38,6.36,22s-2.45,16.37-6.36,22c-3.91,5.72-9.29,9.15-15.29,9.15s-11.37-3.43-15.29-9.15c-3.91-5.63-6.36-13.38-6.36-22,0-5.81,1.1-11.26,3-15.84,1.83-4.4,4.34-8.01,7.34-10.65l.55,2.9c-2.51,2.38-4.59,5.46-6.11,9.15-1.77,4.22-2.75,9.15-2.75,14.43,0,7.83,2.2,14.87,5.75,19.98,3.55,5.1,8.44,8.27,13.88,8.27s10.33-3.17,13.88-8.27c3.55-5.1,5.75-12.14,5.75-19.98s-2.2-14.87-5.75-19.98c-3.36-4.75-7.89-7.83-12.96-8.18l-.56-2.98Zm-55.01,18.62c1.46-.07,2.85,.38,4.1,1.23,4.91-8.21,11.28-17.29,18.39-24.26,6.56-6.44,13.73-11.21,21.09-12.09l-.18-.89-50.33-.09,6.93,36.1s0-.01,0,0Z"/></svg>