<?xml version="1.0" encoding="UTF-8" standalone="no"?>
<!-- Created with Inkscape (http://www.inkscape.org/) -->

<svg
   width="33.376804mm"
   height="6.6470542mm"
   viewBox="0 0 24.210127 4.821493"
   version="1.1"
   id="svg5938"
   xmlns="http://www.w3.org/2000/svg"
   xmlns:svg="http://www.w3.org/2000/svg">
  <defs
     id="defs5935" />
  <g
     id="layer1"
     transform="matrix(0.99505825,0,0,1.0000851,119.63201,-43.489794)">
    <text
       xml:space="preserve"
       style="font-style:normal;font-variant:normal;font-weight:normal;font-stretch:normal;font-size:4.71408px;font-family:sans-serif;-inkscape-font-specification:'sans-serif, Normal';font-variant-ligatures:normal;font-variant-caps:normal;font-variant-numeric:normal;font-variant-east-asian:normal;fill:#000000;fill-opacity:1;fill-rule:evenodd;stroke:#000000;stroke-width:0.392841;stroke-opacity:1"
       x="-141.4686"
       y="38.662304"
       id="text2955"
       transform="scale(0.80498964,1.242252)"><tspan
         id="tspan2953"
         x="-141.4686"
         y="38.662304"
         style="font-style:normal;font-variant:normal;font-weight:normal;font-stretch:normal;font-size:4.71408px;font-family:sans-serif;-inkscape-font-specification:'sans-serif, Normal';font-variant-ligatures:normal;font-variant-caps:normal;font-variant-numeric:normal;font-variant-east-asian:normal;fill:#000000;fill-opacity:1;fill-rule:evenodd;stroke:#000000;stroke-width:0.392841;stroke-opacity:1">DH BIKES</tspan></text>
    <path
       d="m -115.98009,45.548326 c -0.12948,0.108656 -0.23942,0.262907 -0.32004,0.44515 -0.0903,0.206797 -0.1417,0.44868 -0.1417,0.708057 0,0.371542 0.10512,0.704531 0.27362,0.946382 0.1686,0.241881 0.40312,0.392599 0.65965,0.392599 0.2565,0 0.49105,-0.150709 0.65961,-0.392599 0.16857,-0.241851 0.27362,-0.57484 0.27362,-0.946382 0,-0.368012 -0.10501,-0.704527 -0.27362,-0.946379 -0.16858,-0.241852 -0.40311,-0.389068 -0.65961,-0.389068 h -0.005 l -0.0415,-0.231323 h 0.002 c 0.0197,0 0.0342,-0.0035 0.0439,-0.0035 0.30292,0 0.57655,0.175275 0.77444,0.462675 0.19788,0.283905 0.32004,0.676505 0.32004,1.107626 0,0.434653 -0.12216,0.82722 -0.32004,1.111124 -0.19789,0.283935 -0.47152,0.459209 -0.77444,0.459209 -0.30296,0 -0.57658,-0.175278 -0.77447,-0.459209 -0.19789,-0.283904 -0.32005,-0.676471 -0.32005,-1.111124 0,-0.304932 0.0611,-0.588867 0.16613,-0.830719 0.10015,-0.231324 0.2443,-0.424123 0.41288,-0.553813 z m -3.02207,0.837718 0.94058,-1.233815 -0.18809,-0.981437 -0.17591,0.02103 c -0.009,0 -0.022,0.0035 -0.0319,0.0035 -0.0929,0 -0.17833,-0.05258 -0.24186,-0.136692 -0.0635,-0.0806 -0.10512,-0.192798 -0.11235,-0.315458 -0.002,-0.01052 -0.002,-0.0245 -0.002,-0.03504 0,-0.04556 0.0146,-0.08763 0.0391,-0.115664 0.0196,-0.02453 0.044,-0.03856 0.0733,-0.03856 h 0.75243 c 0.0831,0 0.15883,0.01752 0.21743,0.0701 0.0611,0.05259 0.0978,0.136691 0.0978,0.255879 0,0.04906 -0.005,0.09814 -0.0269,0.143719 -0.0243,0.04908 -0.061,0.08059 -0.11725,0.08763 l -0.30785,0.03855 0.0733,0.389069 2.00819,0.0035 -0.15148,-0.795665 h -0.19543 c -0.044,0 -0.0806,-0.05259 -0.0806,-0.115666 0,-0.06308 0.0366,-0.115663 0.0806,-0.115663 h 0.66452 c 0.10015,0 0.19056,0.05609 0.25652,0.150746 0.0636,0.09464 0.10501,0.224324 0.10501,0.368042 0,0.143717 -0.0415,0.273407 -0.10501,0.364541 -0.066,0.09464 -0.15637,0.154214 -0.25652,0.154214 -0.044,0 -0.0807,-0.05259 -0.0807,-0.115665 0,-0.0666 0.0367,-0.11917 0.0807,-0.11917 0.0561,0 0.10501,-0.03156 0.14169,-0.08063 0.0367,-0.05259 0.0585,-0.126197 0.0585,-0.203297 0,-0.0806 -0.022,-0.150709 -0.0585,-0.203298 -0.0367,-0.05259 -0.0854,-0.08415 -0.14169,-0.08415 h -0.3005 l 0.16611,0.876302 c 0,0.0035 0,0.0035 0,0.007 l 0.0489,0.24535 c 0.002,0.007 0.002,0.01401 0.002,0.02103 l 0.27606,1.440614 c 0.0635,0.0035 0.12216,0.04209 0.16611,0.105169 0.0465,0.06658 0.0758,0.157756 0.0758,0.259381 0,0.101667 -0.0293,0.192799 -0.0758,0.259408 -0.0465,0.06658 -0.10996,0.108657 -0.18078,0.108657 -0.0708,0 -0.13437,-0.04208 -0.1808,-0.108657 -0.0463,-0.0666 -0.0758,-0.157736 -0.0758,-0.259408 0,-0.101626 0.0293,-0.1928 0.0758,-0.259381 0.0122,-0.01752 0.0243,-0.03156 0.0391,-0.04557 l -0.25895,-1.360006 c -0.27365,0.02453 -0.54481,0.199799 -0.79157,0.44165 -0.27118,0.26641 -0.51302,0.609895 -0.70117,0.918356 0.0463,0.08411 0.0733,0.192801 0.0733,0.304932 0,0.09467 -0.0197,0.178762 -0.0489,0.255879 l 0.18566,0.203268 0.11971,-0.04556 c 0.022,-0.007 0.044,0.01052 0.0489,0.04206 0.007,0.03156 -0.007,0.06312 -0.0269,0.07012 l -0.28093,0.108656 c -0.0196,0.007 -0.044,-0.01052 -0.0489,-0.04206 -0.005,-0.03156 0.007,-0.06311 0.0293,-0.07011 l 0.0611,-0.02452 -0.13681,-0.15071 c -0.002,0.0035 -0.002,0.0035 -0.005,0.007 -0.0636,0.09114 -0.14903,0.147224 -0.24673,0.147224 -0.0953,0 -0.18325,-0.05609 -0.24675,-0.147224 -0.044,-0.06312 -0.0758,-0.143719 -0.0903,-0.234823 h -0.87708 c -0.0122,0.05254 -0.0319,0.101625 -0.061,0.140176 -0.044,0.06658 -0.10997,0.108655 -0.18081,0.108655 -0.0684,0 -0.13436,-0.04209 -0.18078,-0.108655 -0.044,-0.0666 -0.0733,-0.157735 -0.0733,-0.259407 0,-0.101626 0.0293,-0.192802 0.0733,-0.259379 0.0465,-0.0666 0.11234,-0.10517 0.18078,-0.10517 0.0489,0 0.0929,0.01752 0.13199,0.04907 z m 0.98945,-0.984936 -0.88441,1.160208 c 0.002,0.01052 0.005,0.01753 0.007,0.02806 h 0.87217 c 0.017,-0.09114 0.0489,-0.175277 0.0928,-0.24188 0.0244,-0.03152 0.0513,-0.05958 0.0782,-0.0841 z m -1.12138,2.541242 c -0.23697,0 -0.4544,-0.136711 -0.61076,-0.364544 -0.15637,-0.224355 -0.25408,-0.532786 -0.25408,-0.876302 0,-0.343516 0.0976,-0.651946 0.25408,-0.876273 0.15636,-0.224354 0.37379,-0.364541 0.61076,-0.364541 0.16859,0 0.32493,0.07011 0.45687,0.185771 l -0.0636,0.0806 c -0.11487,-0.09464 -0.24921,-0.150709 -0.39335,-0.150709 -0.21499,0 -0.41043,0.126196 -0.55212,0.329486 -0.14168,0.203298 -0.22966,0.487206 -0.22966,0.795665 0,0.311963 0.088,0.592399 0.22966,0.795666 0.14169,0.203298 0.33713,0.329487 0.55212,0.329487 0.21747,0 0.4129,-0.126198 0.5546,-0.329487 0.0854,-0.122656 0.15145,-0.273408 0.19056,-0.445149 h 0.0854 c -0.0414,0.203298 -0.11725,0.382068 -0.21743,0.525786 -0.15635,0.227824 -0.37379,0.364544 -0.61322,0.364544 z m 0.74759,-1.584362 c -0.009,-0.03853 -0.0197,-0.07711 -0.0293,-0.112159 l 0.0611,-0.08411 c 0.022,0.06308 0.039,0.129683 0.0538,0.196269 z m -0.74759,1.913851 c -0.30049,0 -0.57412,-0.17528 -0.77201,-0.45921 -0.19789,-0.283905 -0.32005,-0.676474 -0.32005,-1.111125 0,-0.431122 0.12216,-0.823721 0.32005,-1.107624 0.19789,-0.287406 0.47152,-0.462677 0.77201,-0.462677 0.23452,0 0.45198,0.108656 0.63032,0.287404 l -0.12216,0.161241 c -0.14659,-0.136691 -0.32004,-0.213797 -0.50816,-0.213797 -0.25652,0 -0.4886,0.147224 -0.65718,0.389068 -0.16858,0.241883 -0.27361,0.57837 -0.27361,0.946381 0,0.371543 0.10501,0.704531 0.27361,0.946382 0.16858,0.241882 0.40066,0.392598 0.65718,0.392598 0.25896,0 0.49105,-0.15071 0.65964,-0.392598 0.11487,-0.161239 0.19789,-0.364513 0.24184,-0.595865 h 0.16614 c -0.0465,0.294432 -0.14904,0.553811 -0.29315,0.760609 -0.1979,0.283933 -0.47152,0.45921 -0.77447,0.45921 z m 0.90148,-1.913851 c -0.0171,-0.09113 -0.039,-0.178762 -0.0683,-0.262878 l 0.12216,-0.161241 c 0.0513,0.129701 0.0903,0.273409 0.11235,0.424124 z m 2.73867,-0.897298 c 0.2321,0.007 0.44466,0.143718 0.59613,0.364541 0.15638,0.224327 0.25408,0.532757 0.25408,0.876273 0,0.343516 -0.0976,0.651947 -0.25408,0.876302 -0.15636,0.227823 -0.37135,0.364544 -0.61075,0.364544 -0.23943,0 -0.45442,-0.136711 -0.61077,-0.364544 -0.15638,-0.224355 -0.2541,-0.532786 -0.2541,-0.876302 0,-0.231324 0.044,-0.448648 0.11971,-0.63092 0.0733,-0.175277 0.17346,-0.318961 0.29318,-0.424123 l 0.022,0.115664 c -0.10015,0.09464 -0.18323,0.217325 -0.24431,0.364543 -0.0709,0.168251 -0.10996,0.364542 -0.10996,0.574839 0,0.311961 0.088,0.592399 0.22965,0.795666 0.1417,0.203298 0.33714,0.329486 0.55459,0.329486 0.21744,0 0.41288,-0.126197 0.55457,-0.329486 0.14168,-0.203267 0.22965,-0.483705 0.22965,-0.795666 0,-0.308459 -0.088,-0.592366 -0.22965,-0.795665 -0.13438,-0.189269 -0.31517,-0.311958 -0.51794,-0.325986 z m -2.19629,0.743083 c 0.005,0 0.007,0 0.0122,0 0.0538,0 0.10512,0.01753 0.15146,0.04908 0.19547,-0.325989 0.44954,-0.687003 0.73293,-0.963909 0.26142,-0.255879 0.54724,-0.44515 0.84043,-0.480206 l -0.007,-0.03504 -2.00578,-0.0035 z"
       id="path5867"
       style="stroke-width:0.0251855" />
  </g>
</svg>
